{"title":"DJ Snake &amp; Lil Jon - Turn Down For What [Music Video] 1080p ","uid":11013004,"size":101748640,"categoryP":"video","categoryS":"music_videos","magnet":"?xt=urn:btih:98af9a3e415b1f8370c07060c9926432140b08e9&amp;dn=DJ+Snake+%26amp%3B+Lil+Jon+-+Turn+Down+For+What+%5BMusic+Video%5D+1080p+&amp;tr=udp%3A%2F%2Ftracker.openbittorrent.com%3A80&amp;tr=udp%3A%2F%2Fopen.demonii.com%3A1337&amp;tr=udp%3A%2F%2Ftracker.coppersurfer.tk%3A6969&amp;tr=udp%3A%2F%2Fexodus.desync.com%3A6969","seeders":17,"leechers":0,"uploader":"Sbyky","files":1,"time":1410407794,"description":"\n\nGeneral\nComplete name                            : DJ Snake &amp; Lil Jon - Turn Down For What [Music Video] 1080p [Sbyky].MP4\nFormat                                   : MPEG-4\nFormat profile                           : Base Media\nCodec ID                                 : isom\nFile size                                : 97.0 MiB\nDuration                                 : 3mn 36s\nOverall bit rate mode                    : Variable\nOverall bit rate                         : 3 767 Kbps\nEncoded date                             : UTC 2014-03-13 01:24:23\nTagged date                              : UTC 2014-03-13 01:24:23\n\nVideo\nID                                       : 1\nFormat                                   : AVC\nFormat/Info                              : Advanced Video Codec\nFormat profile                           : &lt;a class=&quot;__cf_email__&quot; href=&quot;/cdn-cgi/l/email-protection&quot; data-cfemail=&quot;5018393738101c647e60&quot;&gt;[email&amp;#160;protected]&lt;/a&gt;&lt;script cf-hash='f9e31' type=&quot;text/javascript&quot;&gt;\n/* &lt;![CDATA[ */!function(){try{var t=&quot;currentScript&quot;in document?document.currentScript:function(){for(var t=document.getElementsByTagName(&quot;script&quot;),e=t.length;e--;)if(t[e].getAttribute(&quot;cf-hash&quot;))return t[e]}();if(t&amp;&amp;t.previousSibling){var e,r,n,i,c=t.previousSibling,a=c.getAttribute(&quot;data-cfemail&quot;);if(a){for(e=&quot;&quot;,r=parseInt(a.substr(0,2),16),n=2;a.length-n;n+=2)i=parseInt(a.substr(n,2),16)^r,e+=String.fromCharCode(i);e=document.createTextNode(e),c.parentNode.replaceChild(e,c)}}}catch(u){}}();/* ]]&gt; */&lt;/script&gt;\nFormat settings, CABAC                   : Yes\nFormat settings, ReFrames                : 2 frames\nCodec ID                                 : avc1\nCodec ID/Info                            : Advanced Video Coding\nDuration                                 : 3mn 36s\nBit rate                                 : 3 639 Kbps\nWidth                                    : 1 920 pixels\nHeight                                   : 1 080 pixels\nDisplay aspect ratio                     : 16:9\nFrame rate mode                          : Variable\nFrame rate                               : 23.976 fps\nMinimum frame rate                       : 23.974 fps\nMaximum frame rate                       : 24.664 fps\nColor space                              : YUV\nChroma subsampling                       : 4:2:0\nBit depth                                : 8 bits\nScan type                                : Progressive\nBits/(Pixel*Frame)                       : 0.073\nStream size                              : 93.7 MiB (97%)\nEncoded date                             : UTC 2014-03-13 01:24:23\nTagged date                              : UTC 2014-03-13 01:24:23\n\nAudio\nID                                       : 2\nFormat                                   : AAC\nFormat/Info                              : Advanced Audio Codec\nFormat profile                           : LC\nCodec ID                                 : 40\nDuration                                 : 3mn 36s\nBit rate mode                            : Variable\nBit rate                                 : 126 Kbps\nChannel(s)                               : 2 channels\nChannel positions                        : Front: L R\nSampling rate                            : 44.1 KHz\nCompression mode                         : Lossy\nStream size                              : 3.24 MiB (3%)\nEncoded date                             : UTC 2014-03-13 01:24:04\nTagged date                              : UTC 2014-03-13 01:24:04\n\nShared By Sbyky\n","torrent":{"xt":"urn:btih:98af9a3e415b1f8370c07060c9926432140b08e9","amp;dn":"DJ+Snake+%26amp%3B+Lil+Jon+-+Turn+Down+For+What+%5BMusic+Video%5D+1080p+","amp;tr":["udp%3A%2F%2Ftracker.openbittorrent.com%3A80","udp%3A%2F%2Fopen.demonii.com%3A1337","udp%3A%2F%2Ftracker.coppersurfer.tk%3A6969","udp%3A%2F%2Fexodus.desync.com%3A6969"],"infoHash":"98af9a3e415b1f8370c07060c9926432140b08e9","infoHashBuffer":{"type":"Buffer","data":[152,175,154,62,65,91,31,131,112,192,112,96,201,146,100,50,20,11,8,233]},"announce":[],"urlList":[]}}